<?xml version="1.0" encoding="utf-8"?>
<!-- Generator: Adobe Illustrator 24.1.2, SVG Export Plug-In . SVG Version: 6.00 Build 0)  -->
<svg version="1.1" id="Capa_1" xmlns="http://www.w3.org/2000/svg" xmlns:xlink="http://www.w3.org/1999/xlink" x="0px" y="0px"
	 viewBox="0 0 415.7 415.7" style="enable-background:new 0 0 415.7 415.7;" xml:space="preserve">
<style type="text/css">
	.st0{fill:#FEFEFE;}
</style>
<g>
	<g>
		<path class="st0" d="M207.9,53.4c-85.1,0-154.4,69.3-154.4,154.4s69.3,154.4,154.4,154.4s154.4-69.3,154.4-154.4
			S293,53.4,207.9,53.4z M244.4,182.7c5.5,0,10,4.5,10,10s-4.5,10-10,10h-94.3c-0.6,7-0.1,14.1,1.6,21h87.4c5.5,0,10,4.5,10,10
			s-4.5,10-10,10h-79.2c2.9,4.9,6.4,9.3,10.4,13.3c19.5,19.6,48.6,25.8,74.4,15.9c5.1-2,10.9,0.6,12.9,5.7s-0.6,10.9-5.7,12.9
			c-33.1,12.7-70.6,4.7-95.7-20.4c-8-8-14.3-16.4-18.7-27.4h-12.9c-5.5,0-10-4.5-10-10s4.5-10,10-10h6.8c-1.3-6.9-1.8-14-1.3-21
			h-5.6c-5.5,0-10-4.5-10-10s4.5-10,10-10h9.1c4.3-14.3,12-27.4,22.6-37.9c25-25.2,62.5-33.3,95.7-20.6c5.1,2,7.7,7.8,5.7,12.9
			s-7.7,7.7-12.9,5.7c-25.8-9.9-54.9-3.6-74.4,16c-6.8,6.8-12.2,14.9-15.6,23.9L244.4,182.7L244.4,182.7z"/>
	</g>
</g>
<g>
	<g>
		<path class="st0" d="M207.9,0C93.3,0,0,93.3,0,207.9s93.3,207.8,207.9,207.8s207.8-93.3,207.8-207.9S322.5,0,207.9,0z
			 M207.9,382.2c-96.2,0-174.4-78.2-174.4-174.4S111.7,33.4,207.9,33.4s174.4,78.2,174.4,174.4S304.1,382.2,207.9,382.2z"/>
	</g>
</g>
</svg>
