<?xml version="1.0" encoding="utf-8"?>
<!-- Generator: Adobe Illustrator 24.1.2, SVG Export Plug-In . SVG Version: 6.00 Build 0)  -->
<svg version="1.1" id="Capa_1" xmlns="http://www.w3.org/2000/svg" xmlns:xlink="http://www.w3.org/1999/xlink" x="0px" y="0px"
	 viewBox="0 0 512 512" style="enable-background:new 0 0 512 512;" xml:space="preserve">
<style type="text/css">
	.st0{fill:#FEFEFE;}
</style>
<g>
	<path class="st0" d="M304.7,50.5c5.9-5.9,15.4-5.9,21.2,0s5.9,15.4,0,21.2l-35.8,35.8c4.8,8.7,8,18.1,9.7,27.9h8.7
		c37.5,0,68-30.5,68-68V15c0-8.3-6.7-15-15-15H309c-36.8,0-66.9,29.4-67.9,66c11.1,3.9,21.4,9.9,30.3,18L304.7,50.5z"/>
	<path class="st0" d="M271,152.6l0-2.1c0-32.9-26.6-59.6-59.5-59.6c-8.3,0-15,6.7-15,15s6.7,15,15,15c7.9,0,15.3,3.1,20.9,8.7
		c9.9,9.9,8.5,22.3,8.6,23C148.7,160.3,76,237.8,76,332c0,99.3,80.7,180,180,180s180-80.7,180-180C436,237.8,363.3,160.3,271,152.6z
		 M166,405c-8,0-14.5-6.5-14.5-14.5S158,376,166,376s14.5,6.5,14.5,14.5S174.1,405,166,405z M210.5,449.5c-8,0-14.5-6.5-14.5-14.5
		s6.5-14.5,14.5-14.5S225,427,225,435S218.6,449.5,210.5,449.5z M222.4,392c-8,0-14.5-6.5-14.5-14.5s6.5-14.5,14.5-14.5
		s14.5,6.5,14.5,14.5S230.4,392,222.4,392z"/>
</g>
</svg>
