<?xml version="1.0" encoding="utf-8"?>
<!-- Generator: Adobe Illustrator 24.1.2, SVG Export Plug-In . SVG Version: 6.00 Build 0)  -->
<svg version="1.1" id="Capa_1" xmlns="http://www.w3.org/2000/svg" xmlns:xlink="http://www.w3.org/1999/xlink" x="0px" y="0px"
	 viewBox="0 0 512 512" style="enable-background:new 0 0 512 512;" xml:space="preserve">
<style type="text/css">
	.st0{fill:#FEFEFE;}
</style>
<g>
	<g>
		<path class="st0" d="M443.9,137.6l-90,45c-11,5.5-11,21.3,0,26.8l90,45c10,5,21.7-2.4,21.7-13.4v-90
			C465.6,140,454,132.6,443.9,137.6z"/>
	</g>
</g>
<g>
	<g>
		<path class="st0" d="M375.6,452h-16.2l-17.7-54.8c-30.5,15.2-64.8,23.8-101,23.8c-36.3,0-70.5-8.8-100.9-24.2L121.9,452h-16.2
			c-16.6,0-30,13.4-30,30c0,16.6,13.4,30,30,30h270c16.6,0,30-13.4,30-30C405.6,465.4,392.2,452,375.6,452z"/>
	</g>
</g>
<g>
	<g>
		<path class="st0" d="M113.9,48.1l107.4,107.4c1.4-0.7,2.8-1.2,4.3-1.7V0C183.1,3.3,144.5,21.9,113.9,48.1z"/>
	</g>
</g>
<g>
	<g>
		<path class="st0" d="M198.4,211h-152c3.3,42.5,20.1,81.2,46.3,111.7l107.4-107.4C199.5,213.9,198.9,212.5,198.4,211z"/>
	</g>
</g>
<g>
	<g>
		<path class="st0" d="M92.7,69.3C66.5,99.8,49.6,138.5,46.4,181h152c0.5-1.5,1.1-2.9,1.7-4.3L92.7,69.3z"/>
	</g>
</g>
<g>
	<g>
		<path class="st0" d="M240.6,181c-8.3,0-15,6.7-15,15c0,8.3,6.7,15,15,15s15-6.7,15-15C255.6,187.7,248.9,181,240.6,181z"/>
	</g>
</g>
<g>
	<g>
		<path class="st0" d="M255.6,0.3v153.4c1.5,0.5,2.9,1.1,4.3,1.7L367.2,48.2C336.8,21.8,298.1,3.6,255.6,0.3z"/>
	</g>
</g>
<g>
	<g>
		<path class="st0" d="M221.3,236.5L113.9,343.9c30.5,26.2,69.2,43.1,111.7,46.3v-152C224.2,237.7,222.7,237.2,221.3,236.5z"/>
	</g>
</g>
<g>
	<g>
		<path class="st0" d="M388.5,69.4L281.1,176.7c0.7,1.4,1.2,2.8,1.7,4.3h35.6c3.8-10.7,11.4-19.9,22-25.2l77.8-38.9
			C410.5,99.5,400.5,83.5,388.5,69.4z"/>
	</g>
</g>
<g>
	<g>
		<path class="st0" d="M340.5,236.3c-10.6-5.3-18.2-14.5-22-25.3h-35.6c-0.5,1.5-1.1,2.9-1.7,4.3l107.3,107.3
			c12-14.2,22.1-30.1,29.8-47.5L340.5,236.3z"/>
	</g>
</g>
<g>
	<g>
		<path class="st0" d="M259.9,236.5c-1.4,0.7-2.8,1.2-4.3,1.7v151.7c42.5-3.3,81.1-19.7,111.6-46.1L259.9,236.5z"/>
	</g>
</g>
</svg>
