<?xml version="1.0" encoding="utf-8"?>
<!-- Generator: Adobe Illustrator 24.1.2, SVG Export Plug-In . SVG Version: 6.00 Build 0)  -->
<svg version="1.1" id="Layer_1" xmlns="http://www.w3.org/2000/svg" xmlns:xlink="http://www.w3.org/1999/xlink" x="0px" y="0px"
	 viewBox="0 0 512 512" style="enable-background:new 0 0 512 512;" xml:space="preserve">
<style type="text/css">
	.st0{fill:#FEFEFE;}
</style>
<path class="st0" d="M488,251.4c-50.6-21.7-96.7-52.8-135.6-91.8c-39-38.9-70.1-84.9-91.8-135.6c-1.1-2.5-4-3.7-6.6-2.6
	c-1.2,0.5-2.1,1.4-2.6,2.6c-21.7,50.6-52.8,96.7-91.8,135.6c-38.9,39-84.9,70.1-135.6,91.8c-2.5,1.1-3.7,4-2.6,6.6
	c0.5,1.2,1.4,2.1,2.6,2.6c50.6,21.7,96.7,52.8,135.6,91.8c39,38.9,70.1,84.9,91.8,135.6c1.1,2.5,4,3.7,6.6,2.6
	c1.2-0.5,2.1-1.4,2.6-2.6C304.4,385.8,385.8,304.4,488,260.6c2.5-1.1,3.7-4,2.6-6.6C490.1,252.9,489.2,251.9,488,251.4L488,251.4z"
	/>
</svg>
